<mxfile host="app.diagrams.net" agent="Mozilla/5.0 (X11; Linux x86_64; rv:133.0) Gecko/20100101 Firefox/133.0" version="25.0.3">
  <diagram name="Page-1" id="Yw4mbCM6_4nNGVgxPN3H">
    <mxGraphModel dx="1588" dy="940" grid="1" gridSize="10" guides="1" tooltips="1" connect="1" arrows="1" fold="1" page="1" pageScale="1" pageWidth="850" pageHeight="1100" math="0" shadow="0">
      <root>
        <mxCell id="0" />
        <mxCell id="1" parent="0" />
        <mxCell id="QHLQoTPa1NHbG8B7G440-1" value="&lt;font style=&quot;font-size: 19px;&quot;&gt;&lt;b&gt;算子展示阶段&lt;/b&gt;&lt;/font&gt;" style="rounded=0;whiteSpace=wrap;html=1;fillColor=#dae8fc;strokeColor=#6c8ebf;" vertex="1" parent="1">
          <mxGeometry x="50" y="405" width="200" height="155" as="geometry" />
        </mxCell>
        <mxCell id="QHLQoTPa1NHbG8B7G440-2" value="&lt;font style=&quot;font-size: 19px;&quot;&gt;&lt;b&gt;代码编辑阶段&lt;/b&gt;&lt;/font&gt;" style="rounded=0;whiteSpace=wrap;html=1;fillColor=#d5e8d4;strokeColor=#82b366;" vertex="1" parent="1">
          <mxGeometry x="310" y="405" width="200" height="155" as="geometry" />
        </mxCell>
        <mxCell id="QHLQoTPa1NHbG8B7G440-3" value="&lt;font style=&quot;font-size: 19px;&quot;&gt;&lt;b&gt;输出展示阶段&lt;/b&gt;&lt;/font&gt;" style="rounded=0;whiteSpace=wrap;html=1;fillColor=#fff2cc;strokeColor=#d6b656;" vertex="1" parent="1">
          <mxGeometry x="580" y="405" width="200" height="155" as="geometry" />
        </mxCell>
        <mxCell id="QHLQoTPa1NHbG8B7G440-4" value="" style="shape=flexArrow;endArrow=classic;html=1;rounded=0;exitX=1;exitY=0.5;exitDx=0;exitDy=0;entryX=0;entryY=0.5;entryDx=0;entryDy=0;" edge="1" parent="1" source="QHLQoTPa1NHbG8B7G440-1" target="QHLQoTPa1NHbG8B7G440-2">
          <mxGeometry width="50" height="50" relative="1" as="geometry">
            <mxPoint x="400" y="510" as="sourcePoint" />
            <mxPoint x="450" y="460" as="targetPoint" />
          </mxGeometry>
        </mxCell>
        <mxCell id="QHLQoTPa1NHbG8B7G440-5" value="" style="shape=flexArrow;endArrow=classic;html=1;rounded=0;exitX=1;exitY=0.5;exitDx=0;exitDy=0;entryX=0;entryY=0.5;entryDx=0;entryDy=0;" edge="1" parent="1" source="QHLQoTPa1NHbG8B7G440-2" target="QHLQoTPa1NHbG8B7G440-3">
          <mxGeometry width="50" height="50" relative="1" as="geometry">
            <mxPoint x="400" y="510" as="sourcePoint" />
            <mxPoint x="450" y="460" as="targetPoint" />
          </mxGeometry>
        </mxCell>
      </root>
    </mxGraphModel>
  </diagram>
</mxfile>
